# xmcd
#
# Track frame offsets:
# 150
# 11774
# 23001
# 33720
# 47640
# 59052
# 72284
# 85938
# 96775
# 111748
# 128485
# 144048
# 158019
# 168492
# 179120
#
# Disc length: 2531 seconds
#
#
# Revision: 0
# Processed by: cddbd v1.5.2PL0 Copyright (c) Steve Scherf et al.
# Submitted via: FreeRIP 2.951 
#
DISCID=cf09e10f
DTITLE=Jilguerillas - Mis 30 Mejores Canciones Disc1
DYEAR=1900
DGENRE=Latin
TTITLE0=El Novillo Despuntado
TTITLE1=El Bato Gacho
TTITLE2=Camión de Pasajeros
TTITLE3=El Bracero Fracasado
TTITLE4=El Hijo Prodigo
TTITLE5=El Ingrato
TTITLE6=Cumpleaños
TTITLE7=Barrio de Jesús María
TTITLE8=El Muchacho Alegre
TTITLE9=Que Me Lleven a la Carcel
TTITLE10=Yerba Mala
TTITLE11=De Mi Rancho a Tu Rancho
TTITLE12=El Amor de Tus Amores
TTITLE13=Quisera Ser Pajarillo
TTITLE14=Por Ellas
EXTD=
EXTT0=
EXTT1=
EXTT2=
EXTT3=
EXTT4=
EXTT5=
EXTT6=
EXTT7=
EXTT8=
EXTT9=
EXTT10=
EXTT11=
EXTT12=
EXTT13=
EXTT14=
PLAYORDER=
